# xmcd
#
# Track frame offsets:
#	150
#	14280
#	27007
#	38482
#	51255
#	68772
#	80517
#	94117
#	109267
#	120192
#	130815
#	150142
#	164685
#	177037
#	190737
#	202957
#	215315
#	228292
#	243155
#	252747
#	267980
#	283662
#
# Disc length: 3993
#
# Revision: 5
# Processed by: cddbd v1.5.1PL0 Copyright (c) Steve Scherf et al.
# Submitted via: ExactAudioCopy v0.90b4
# Normalized: r4:TDELIM( - ),TSWAP
#
DISCID=1d0f9716
DTITLE=Time Life Music - Contemporary Country - Mid '70s
DYEAR=1900
DGENRE=Country
TTITLE0=George Jones - The Grand Tour
TTITLE1=Gary Stewart - She's Actin' Single (I'm Drinkin' Doubles)
TTITLE2=Loretta Lynn And Conway Twitty - Louisiana Woman, Mississipi Man
TTITLE3=Don Williams - You're My Best Friend
TTITLE4=Emmylou Harris - Together Again
TTITLE5=Freddy Frender - Before The Next Teardrop Falls
TTITLE6=Mickey Gilley - Don't The Girls All Get Prettier At Closing Time
TTITLE7=B.J. Thomas - (Hey Won't You Play) Another Somebody Done Somebody Wrong Song
TTITLE8=Tanya Tucker - Would You Lay With Me (In A Field Of Stone)
TTITLE9=Willie Nelson - Blue Eyes Crying In The Rain
TTITLE10=Marty Robbins - El Paso City
TTITLE11=Glen Campbell - Rhinestone Cowboy
TTITLE12=Charlie Rich - The Most Beautiful Girl
TTITLE13=Conway Twitty - You've Never Been This Far Before
TTITLE14=Dolly Parton - Jolene
TTITLE15=Merle Haggard - If We Make It Through December
TTITLE16=Waylon Jennings - Are You Sure Hank Done It This Way
TTITLE17=Jeanne Pruett - Satin Sheets
TTITLE18=Tom T. Hall - I Love
TTITLE19=Jessi Colter - I'm Not Lisa
TTITLE20=Don Williams - Till The River All Runs Dry
TTITLE21=Narvel Felts - Reconsider Me
EXTD=
EXTT0=
EXTT1=
EXTT2=
EXTT3=
EXTT4=
EXTT5=
EXTT6=
EXTT7=
EXTT8=
EXTT9=
EXTT10=
EXTT11=
EXTT12=
EXTT13=
EXTT14=
EXTT15=
EXTT16=
EXTT17=
EXTT18=
EXTT19=
EXTT20=
EXTT21=
PLAYORDER=
